<svg width="560" height="360" viewBox="0 0 560 360" fill="none" xmlns="http://www.w3.org/2000/svg">
  <rect width="560" height="360" rx="32" fill="#F8FAFC"/>
  <rect x="48" y="44" width="464" height="272" rx="24" fill="white" stroke="#E2E8F0" stroke-width="2"/>
  <rect x="82" y="82" width="180" height="34" rx="10" fill="#EEF2FF"/>
  <rect x="292" y="82" width="120" height="34" rx="10" fill="#ECFDF3"/>
  <rect x="82" y="140" width="396" height="92" rx="20" fill="#F8FAFC"/>
  <rect x="104" y="162" width="110" height="12" rx="6" fill="#4F46E5"/>
  <rect x="104" y="188" width="180" height="10" rx="5" fill="#CBD5E1"/>
  <rect x="104" y="206" width="140" height="10" rx="5" fill="#CBD5E1"/>
  <rect x="374" y="154" width="80" height="80" rx="20" fill="#0F766E"/>
  <path d="M404 176V214" stroke="white" stroke-width="10" stroke-linecap="round"/>
  <path d="M388 195H420" stroke="white" stroke-width="10" stroke-linecap="round"/>
  <rect x="82" y="252" width="120" height="24" rx="12" fill="#0F766E" fill-opacity="0.12"/>
  <rect x="220" y="252" width="90" height="24" rx="12" fill="#E0F2FE"/>
  <rect x="330" y="252" width="100" height="24" rx="12" fill="#FEF3C7"/>
</svg>
