<svg width="760" height="640" viewBox="0 0 760 640" fill="none" xmlns="http://www.w3.org/2000/svg">
  <rect width="760" height="640" rx="40" fill="#F8FAFC"/>
  <rect x="48" y="48" width="664" height="544" rx="32" fill="white" stroke="#E2E8F0" stroke-width="2"/>
  <rect x="88" y="92" width="180" height="44" rx="14" fill="#EEF2FF"/>
  <rect x="290" y="92" width="120" height="44" rx="14" fill="#E0F2FE"/>
  <rect x="430" y="92" width="110" height="44" rx="14" fill="#ECFDF3"/>
  <rect x="560" y="92" width="92" height="44" rx="14" fill="#FEF3C7"/>
  <rect x="88" y="174" width="584" height="212" rx="28" fill="#F8FAFC"/>
  <path d="M130 340C173 286 201 250 230 230C263 207 326 201 365 224C404 247 427 287 454 285C489 282 525 215 630 170" stroke="#4F46E5" stroke-width="10" stroke-linecap="round"/>
  <circle cx="230" cy="230" r="10" fill="#4F46E5"/>
  <circle cx="365" cy="224" r="10" fill="#0F766E"/>
  <circle cx="454" cy="285" r="10" fill="#4F46E5"/>
  <circle cx="630" cy="170" r="10" fill="#0F766E"/>
  <rect x="88" y="418" width="220" height="104" rx="24" fill="#111827"/>
  <rect x="330" y="418" width="342" height="104" rx="24" fill="#F8FAFC" stroke="#E2E8F0"/>
  <rect x="118" y="446" width="90" height="14" rx="7" fill="#F9FAFB"/>
  <rect x="118" y="472" width="130" height="12" rx="6" fill="#6B7280"/>
  <rect x="356" y="442" width="140" height="14" rx="7" fill="#D1FAE5"/>
  <rect x="356" y="470" width="180" height="12" rx="6" fill="#64748B"/>
  <rect x="356" y="492" width="100" height="12" rx="6" fill="#CBD5E1"/>
  <circle cx="620" cy="468" r="40" fill="#4F46E5"/>
  <path d="M620 438V498" stroke="white" stroke-width="8" stroke-linecap="round"/>
  <path d="M590 468H650" stroke="white" stroke-width="8" stroke-linecap="round"/>
</svg>
